<?xml version="1.0" encoding="UTF-8" standalone="no"?>
<!-- Created with Inkscape (http://www.inkscape.org/) -->

<svg
   xmlns:dc="http://purl.org/dc/elements/1.1/"
   xmlns:cc="http://creativecommons.org/ns#"
   xmlns:rdf="http://www.w3.org/1999/02/22-rdf-syntax-ns#"
   xmlns:svg="http://www.w3.org/2000/svg"
   xmlns="http://www.w3.org/2000/svg"
   xmlns:sodipodi="http://sodipodi.sourceforge.net/DTD/sodipodi-0.dtd"
   xmlns:inkscape="http://www.inkscape.org/namespaces/inkscape"
   version="1.1"
   id="svg4504"
   width="728"
   height="710"
   viewBox="0 0 728 710"
   sodipodi:docname="farmers-bash-logo.svg"
   inkscape:version="0.92.2 (5c3e80d, 2017-08-06)">
  <metadata
     id="metadata4510">
    <rdf:RDF>
      <cc:Work
         rdf:about="">
        <dc:format>image/svg+xml</dc:format>
        <dc:type
           rdf:resource="http://purl.org/dc/dcmitype/StillImage" />
        <dc:title></dc:title>
      </cc:Work>
    </rdf:RDF>
  </metadata>
  <defs
     id="defs4508" />
  <sodipodi:namedview
     pagecolor="#ffffff"
     bordercolor="#666666"
     borderopacity="1"
     objecttolerance="10"
     gridtolerance="10"
     guidetolerance="10"
     inkscape:pageopacity="0"
     inkscape:pageshadow="2"
     inkscape:window-width="1920"
     inkscape:window-height="1009"
     id="namedview4506"
     showgrid="false"
     inkscape:zoom="0.83657704"
     inkscape:cx="443.10478"
     inkscape:cy="364.07589"
     inkscape:window-x="-8"
     inkscape:window-y="-8"
     inkscape:window-maximized="1"
     inkscape:current-layer="svg4504" />
  <path
     style="fill:#f1f1f1;fill-opacity:1;stroke-width:1.03198802"
     d="m 348.4704,1.695753 c -0.15445,-0.015721 -0.32122,-0.013899 -0.495,0.00607 -0.23171,0.026572 -0.4759,0.087252 -0.7213,0.18097 -0.98155,0.3748563 -1.59341,0.991831 -1.35772,1.3713531 0.23568,0.3795201 -3.04683,4.8472882 -7.2958,9.9292349 -14.11763,16.885216 -17.9224,24.2715 -16.47058,31.973421 1.02434,5.434014 6.49775,10.725504 11.09622,10.725504 3.28984,0 7.67162,-2.137394 9.37077,-4.572515 1.40732,-2.016884 0.84328,1.386646 -1.17589,7.104088 -1.08139,3.062031 -1.7598,5.770931 -1.50926,6.020278 0.7865,0.782742 13.60875,0.240869 14.46428,-0.611278 0.44807,-0.446288 0.22203,-2.299424 -0.50308,-4.118079 -0.72512,-1.818655 -1.44932,-3.771018 -1.60827,-4.337253 -0.15891,-0.566237 -0.63461,-1.824764 -1.05869,-2.796996 -0.42408,-0.972233 -0.53164,-2.362085 -0.23842,-3.08856 0.32729,-0.810861 0.56408,-0.605487 0.6142,0.530847 0.0449,1.018072 1.363,2.97275 2.92762,4.343285 7.90008,6.920083 19.93585,-1.805457 18.61224,-13.492338 C 372.66593,36.839347 369.0526,28.324046 367.26245,27.055758 366.23191,26.325633 349.83718,3.5868509 349.3998,2.280932 349.28779,1.946511 348.93376,1.7429504 348.4704,1.6957952 Z m -68.61799,28.470642 c -3.79666,-0.02967 -7.6155,0.621713 -10.58708,1.964532 -6.02186,2.721225 -9.66777,9.086383 -9.66777,16.876483 0,7.473706 3.50891,11.983689 9.89811,12.718185 7.27424,0.836242 12.17127,-5.249994 8.37874,-10.411821 -1.47968,-2.013916 -5.64625,-2.780912 -7.54835,-1.389448 -0.74321,0.543689 -1.37137,0.07363 -1.73151,-1.296954 -0.84837,-3.228633 4.09907,-8.227999 8.76262,-8.853467 4.86395,-0.652343 11.63347,2.69203 13.76926,6.80247 1.70444,3.280247 2.14665,14.349153 0.691,17.298747 -0.48525,0.983228 -1.74241,3.640718 -2.79426,5.905661 -1.88791,4.065173 -8.45492,13.055464 -10.03147,13.733632 -0.44661,0.192116 -1.38606,0.893776 -2.0871,1.558355 -2.60707,2.47151 -6.95511,4.783647 -8.99498,4.783647 -1.15793,0 -2.10529,0.5133 -2.10529,1.140113 0,0.62682 -0.58189,0.928417 -1.29307,0.669587 -0.7112,-0.258833 -4.08613,-0.154213 -7.49985,0.233257 -3.41373,0.38748 -7.83606,0.305686 -9.8274,-0.182987 -1.99134,-0.488672 -4.52929,-1.09912 -5.63903,-1.355264 -3.20704,-0.740246 -8.7088,-3.502052 -17.93136,-9.000254 -16.46003,-9.812956 -33.45215,-15.001351 -45.33854,-13.846235 -5.7134,0.555226 -14.20901,3.68186 -17.38787,6.400314 -2.75707,2.357768 -5.01163,6.894458 -5.10967,10.279111 -0.0614,2.121083 0.26606,2.181132 8.13226,1.485966 9.48541,-0.838262 23.84968,5.850122 41.89573,19.506595 9.34257,7.07004 21.67593,13.38788 31.03386,15.89723 7.49105,2.00876 19.37853,1.46721 28.08402,-1.27886 9.17395,-2.89382 17.54363,-8.63213 26.74854,-18.33631 4.17843,-4.40507 9.26274,-8.973389 11.29625,-10.152436 2.53023,-1.467056 3.80069,-3.010665 4.0247,-4.890218 0.18002,-1.510575 -0.0528,-2.774926 -0.51723,-2.811072 -4.78218,-0.372135 -7.76626,-0.818113 -8.16861,-1.218533 -0.26739,-0.266122 0.92024,-3.444504 2.6407,-7.063872 2.67598,-5.629532 3.12895,-7.781752 3.12966,-14.88782 9.8e-4,-14.55401 -4.45423,-23.659184 -13.7733,-28.148917 -2.88217,-1.388564 -6.65502,-2.09975 -10.45171,-2.129417 z m 137.98353,0.06435 c -0.9803,-0.002 -2.01785,0.03054 -3.11953,0.09249 -9.35807,0.526251 -14.6444,4.035266 -19.07493,12.661886 -2.84051,5.530734 -3.11202,6.939337 -3.06499,15.91734 0.0435,8.285805 0.48045,10.82966 2.75384,16.025921 3.05707,6.987526 2.41487,9.218031 -2.44876,8.507612 -2.82644,-0.412851 -3.97622,0.713972 -3.97622,3.888851 0,0.779171 1.97841,2.574035 4.39647,3.989392 2.41806,1.415352 7.99018,6.295523 12.38324,10.846133 9.49205,9.83252 17.15048,14.94913 27.1021,18.10306 9.57131,3.03341 20.89717,2.8343 31.11671,-0.54693 10.40264,-3.44178 21.09926,-9.72041 35.0121,-20.546149 6.49585,-5.054493 18.1932,-10.85173 25.93632,-12.854918 4.94993,-1.280577 6.89785,-1.352761 10.16682,-0.378028 4.55378,1.357823 6.41999,0.02017 5.30364,-3.802386 -2.81931,-9.653672 -16.10376,-15.958056 -30.3853,-14.419307 -9.87695,1.064179 -13.45013,1.75109 -14.03596,2.694446 -0.31277,0.503674 -1.27658,0.914905 -2.14165,0.914905 -1.94426,0 -18.84768,8.298034 -25.30998,12.424613 -9.33503,5.960977 -17.14773,8.419876 -26.78693,8.433218 -10.98734,0.01524 -18.27975,-2.918528 -25.76256,-10.365578 -4.76018,-4.737444 -9.89287,-13.051322 -11.16693,-18.088982 -1.13731,-4.496883 -1.35237,-12.840913 -0.39601,-15.344267 1.48728,-3.89318 7.7133,-8.124525 12.79541,-8.694616 3.84593,-0.431419 4.85686,-0.09197 7.75241,2.59994 1.92747,1.791938 3.32967,4.115425 3.32967,5.519593 0,2.229898 -0.36394,2.397967 -4.49345,2.071105 -4.17912,-0.330793 -4.58401,-0.135232 -5.81278,2.817103 -2.52097,6.057102 2.97931,10.172257 11.32453,8.473429 9.33322,-1.899947 11.0368,-16.229969 3.01045,-25.327792 -3.49639,-3.963145 -7.54561,-5.59782 -14.40773,-5.61209 z M 177.87503,70.295543 c 0.56896,0 1.03446,0.463283 1.03446,1.02952 0,0.566235 -0.4655,1.029519 -1.03446,1.029519 -0.56895,0 -1.03445,-0.463284 -1.03445,-1.029519 0,-0.566237 0.4655,-1.02952 1.03445,-1.02952 z m 12.86815,3.088559 c 0.88701,0 1.61433,0.463284 1.61433,1.02952 0,0.566236 -0.43848,1.029519 -0.97385,1.029519 -0.53537,0 -1.26067,-0.463283 -1.61231,-1.029519 -0.35164,-0.566236 0.0849,-1.02952 0.97183,-1.02952 z m 400.36925,7.614826 c -1.19806,0.04527 -2.89354,0.632084 -5.24707,1.69911 -4.47873,2.030548 -5.48873,2.129659 -10.40119,1.035552 -7.4708,-1.663905 -12.62766,-1.554204 -16.90698,0.355908 -5.31305,2.371533 -7.47051,4.343733 -7.06547,6.462649 0.29864,1.562304 1.66666,1.964909 8.09992,2.392829 6.1175,0.406906 7.80652,0.87158 8.06355,2.217893 0.432,2.262842 -4.93513,3.944942 -11.68417,3.66163 -5.05599,-0.212242 -5.17973,-0.147701 -5.42688,2.871401 -0.40765,4.97917 4.20338,9.13125 12.66812,11.40916 4.95834,1.33434 9.62621,0.0247 16.36956,-4.59262 8.79194,-6.02013 14.14707,-14.709876 14.14707,-22.959093 0,-3.203279 -0.61968,-4.629888 -2.61646,-4.554419 z M 105.198,81.059248 c -0.54747,0.03433 -0.96586,0.313775 -1.45269,0.79828 -1.65964,1.651709 -1.85978,3.918465 -0.75564,8.507612 0.99374,4.130349 3.22823,7.639454 8.2959,13.02181 9.32162,9.90046 17.80384,12.40573 27.00511,7.97276 6.21387,-2.99373 9.9045,-8.85668 7.43723,-11.815353 -0.57859,-0.69383 -3.81102,-1.166732 -7.72817,-1.130064 -4.96259,0.04642 -7.18566,-0.387037 -8.45349,-1.648837 -2.48429,-2.472401 -0.98872,-3.271751 6.33608,-3.386152 7.22286,-0.112815 8.88991,-0.748697 8.88991,-3.390181 0,-1.991707 -5.24102,-6.309828 -7.65745,-6.309828 -0.84289,0 -1.81831,-0.463284 -2.16994,-1.029521 -0.90143,-1.451567 -5.36962,-1.26015 -11.12047,0.476556 -2.70253,0.816141 -4.91369,1.259229 -4.91369,0.983272 0,-0.275957 -0.95723,0.0072 -2.12551,0.629374 -1.72776,0.920251 -3.00228,0.61879 -6.83512,-1.616668 -2.56449,-1.495702 -3.83963,-2.120283 -4.75206,-2.06306 z m 59.62099,13.01176 c -1.63549,-0.0072 -2.84689,0.491925 -4.28736,1.496026 -2.09521,1.460538 -2.63247,4.610896 -1.05467,6.181136 1.8203,1.81161 -2.58153,10.21999 -7.80292,14.90391 -8.32407,7.46723 -18.96233,10.2927 -44.65967,11.86361 -3.98268,0.24346 -9.801534,0.68792 -12.93078,0.98728 -3.12925,0.29937 -9.180854,0.76131 -13.44801,1.02751 -4.267157,0.2662 -12.180795,0.97468 -17.58586,1.57243 -5.405067,0.59776 -11.456673,0.91273 -13.448011,0.70177 -1.99134,-0.21096 -4.22284,0.0734 -4.958145,0.63138 -0.889166,0.67466 -1.712663,0.64012 -2.45887,-0.10254 -0.745117,-0.74156 -1.975114,-0.79352 -3.663046,-0.15482 -1.397891,0.52891 -2.996363,0.68431 -3.549905,0.34385 -0.55355,-0.34048 -2.251183,-0.308 -3.77417,0.0724 -2.677209,0.66874 -2.598268,0.77302 2.386133,3.17503 4.328428,2.08587 4.741309,2.51046 2.569993,2.6482 -1.422386,0.0901 -0.491371,0.44256 2.068925,0.78219 2.560294,0.33965 27.23221,0.59112 54.826504,0.559 43.195892,-0.0504 51.214952,-0.29899 57.681362,-1.7896 10.1445,-2.3385 17.2268,-6.10178 23.47544,-12.47286 4.6981,-4.79018 11.9448,-16.27005 11.9448,-18.92346 0,-2.41325 -9.66365,-10.388208 -14.49258,-11.96013 -3.14246,-1.02294 -5.20368,-1.535549 -6.83916,-1.542273 z m 365.04195,0.902838 c -1.76132,0.01596 -3.60467,0.197574 -5.20867,0.561015 -4.2017,0.952091 -13.68036,9.609259 -13.68036,12.494989 0,2.53541 4.06534,10.37671 7.41297,14.29666 11.02287,12.9073 20.23353,16.76722 42.75845,17.92207 7.96536,0.40839 15.10066,0.5875 15.85839,0.39815 0.75773,-0.18935 10.30064,-0.41183 21.20648,-0.49667 10.90583,-0.0848 18.43403,-0.39419 16.72718,-0.68568 l -3.1034,-0.52882 3.1034,-0.66156 c 1.87068,-0.39779 2.97725,-1.21677 2.78618,-2.06306 -0.2571,-1.13871 -0.0225,-1.15886 1.24659,-0.11059 0.86064,0.71083 2.04897,0.99333 2.64071,0.62937 2.04239,-1.25625 5.34857,-1.47594 7.86758,-0.52279 1.38994,0.52593 2.52757,0.59201 2.52757,0.14678 0,-1.38792 23.0849,-0.73364 23.55421,0.66758 0.22754,0.67935 0.95577,0.91211 1.61836,0.51677 0.66261,-0.39533 0.54954,0.0863 -0.25254,1.06973 -1.36484,1.67356 -0.93543,1.76814 6.71188,1.48397 6.62736,-0.2463 8.23301,-0.62538 8.49794,-2.00677 0.49149,-2.56287 -4.67305,-3.71823 -19.95784,-4.46594 -16.16579,-0.79081 -17.3654,-1.059 -16.52514,-3.69381 0.83261,-2.61076 -1.19853,-2.54678 -2.61241,0.0825 -0.84361,1.56873 -2.16662,2.05902 -5.55417,2.05903 -2.44545,0 -4.68697,-0.23885 -4.98038,-0.53084 -0.2934,-0.292 -4.90901,-0.72842 -10.25775,-0.96921 -17.9222,-0.80685 -28.31897,-1.71132 -31.68646,-2.75676 -1.83798,-0.57061 -3.71463,-0.80704 -4.17018,-0.52683 -1.68777,1.0381 -17.20349,-2.3777 -22.48744,-4.95054 -6.94634,-3.3823 -10.36672,-6.07546 -13.91675,-10.95273 -2.32987,-3.20091 -2.78357,-4.80305 -2.55989,-9.04651 0.15829,-3.002882 -0.23416,-5.570942 -0.93748,-6.146947 -0.98566,-0.807216 -3.69147,-1.23909 -6.62703,-1.212507 z m 152.09628,48.678994 c -0.33579,-0.002 -0.6848,0.0478 -1.04255,0.16087 -2.48675,0.78548 -3.65922,4.0515 -2.03458,5.66838 1.73416,1.72587 4.66335,1.3222 5.80471,-0.80028 1.27723,-2.37511 -0.37709,-5.01239 -2.72758,-5.02897 z m 10.06983,7.09202 c -0.93681,4e-4 -1.87601,0.27655 -2.62452,0.8948 -2.89983,2.39514 -1.16485,7.19457 2.60029,7.19458 0.91033,0 2.21254,-0.55514 2.89528,-1.23461 0.68275,-0.67949 1.24257,-2.29168 1.24257,-3.58322 0,-1.94095 -2.05251,-3.27243 -4.11362,-3.27155 z m -17.24035,21.50932 c -0.54545,-0.069 -1.34748,0.66573 -1.71939,2.08117 -0.35399,1.34721 -0.11618,1.97258 0.65462,1.7172 0.66641,-0.22083 1.36168,-1.17336 1.54562,-2.11736 0.21179,-1.08677 -0.0565,-1.62735 -0.48085,-1.68101 z m 30.03376,0.24331 c -2.07789,-0.0487 -4.27604,0.19265 -6.56845,0.73996 -10.09677,2.41061 -16.38336,13.2078 -13.64398,23.43164 3.46487,12.93159 18.94719,18.56987 30.35701,11.05526 2.87657,-1.89451 4.91306,-4.44521 6.7624,-8.46538 2.4797,-5.3905 2.56422,-6.08591 1.33348,-10.99293 -2.48106,-9.8924 -9.23636,-15.55735 -18.24046,-15.76855 z m -1.28097,5.41906 c 2.89164,-0.0482 5.80275,0.51939 7.82514,1.71921 4.7847,2.8386 7.27119,10.89739 5.17434,16.77595 -0.80789,2.26493 -1.84077,4.11808 -2.29521,4.11808 -1.71898,0 -3.57418,-7.70935 -2.51949,-10.47014 0.56116,-1.46888 0.74135,-3.54079 0.40207,-4.60469 -0.78636,-2.46575 -5.67402,-5.0008 -9.64353,-5.0008 -5.86075,0 -6.33265,0.62808 -6.46539,8.60413 -0.16362,9.83059 -1.03455,13.82761 -2.59221,11.88973 -5.84781,-7.27516 -4.8097,-16.34469 2.41038,-21.05286 1.94138,-1.26598 4.81227,-1.93036 7.7039,-1.97861 z m -103.82809,3.77824 c -4.25768,-0.11912 -6.5943,1.72473 -8.62726,6.50087 -1.57372,3.69725 -2.0291,12.66129 -0.95567,18.80281 1.35687,7.76301 7.63318,10.30687 10.81741,4.3855 0.58201,-1.08227 1.07519,-3.04007 1.0971,-4.35133 0.0258,-1.54123 1.21435,-3.11779 3.36201,-4.45991 4.75466,-2.97127 7.43535,-8.37463 6.53206,-13.16658 -0.86779,-4.60364 -3.6394,-6.63688 -10.27795,-7.54244 -0.69139,-0.0943 -1.33946,-0.1519 -1.9477,-0.16892 z m 104.18773,3.90697 c 3.11461,0 3.47754,2.54064 0.5839,4.08188 -2.85688,1.52164 -3.17005,1.37208 -3.17005,-1.50809 0,-2.05904 0.51723,-2.57379 2.58615,-2.57379 z m -1.62645,8.23614 c 1.64943,0 4.21261,3.14502 4.21261,5.16972 0,1.06388 0.81465,2.39272 1.81031,2.95184 4.17114,2.34224 -3.64859,4.95729 -8.52623,2.85128 -2.95994,-1.27801 -2.9936,-1.36322 -0.77585,-1.94041 1.92512,-0.50103 2.31946,-1.31809 2.31946,-4.81784 0,-2.31795 0.43138,-4.21459 0.9597,-4.21459 z m -147.84729,3.16498 c -6.81845,0.0497 -14.99187,0.6057 -22.76423,1.65687 -8.81395,1.19205 -12.17126,1.23479 -17.80609,0.22521 -5.56423,-0.99692 -7.26006,-0.98406 -8.53432,0.0684 -2.30674,1.9053 -1.95572,4.9674 0.96779,8.42519 4.52071,5.34687 4.88681,9.13612 4.51365,46.66016 l -0.34751,35.11827 -2.84477,5.45525 c -2.71082,5.19939 -3.64496,10.30518 -2.15581,11.78719 1.18055,1.17493 3.05293,0.77381 8.77677,-1.87806 7.6806,-3.55843 16.16581,-3.51539 24.59474,0.12266 5.11769,2.20887 6.55474,2.46856 7.82717,1.4176 1.69926,-1.40355 2.10318,-6.21301 0.65259,-7.7777 -0.49868,-0.53792 -1.85858,-3.56452 -3.02257,-6.72405 -1.90249,-5.16423 -2.60885,-11.52717 -2.36188,-21.28009 0.17624,-6.96015 3.97105,-3.07983 11.32858,11.5821 6.4141,12.78193 10.62143,17.73876 18.3819,21.65208 5.19322,2.61875 7.11645,3.03344 13.41974,2.88949 8.31739,-0.18992 15.34524,-3.07678 20.40031,-8.37691 4.41413,-4.6281 3.5111,-7.31534 -3.15591,-9.38633 -7.41351,-2.30286 -11.90988,-7.00577 -18.05056,-18.87721 -3.47714,-6.72217 -6.60658,-11.24398 -9.46776,-13.68135 l -4.2732,-3.63951 4.82478,-4.10602 c 6.37489,-5.42303 10.22912,-13.45293 10.2436,-21.34643 0.0226,-12.32762 -7.11875,-24.69611 -16.51503,-28.60337 -2.35042,-0.97738 -7.81354,-1.43312 -14.63198,-1.3834 z m -467.431504,0.0603 c -0.386314,0.0141 -0.740224,0.10303 -1.030422,0.28151 -1.714261,1.05443 -19.256101,2.47892 -39.465141,3.20519 -9.725655,0.34952 -17.508657,0.003 -25.633251,-1.14413 -6.416449,-0.90606 -12.351677,-1.38566 -13.1893951,-1.06572 -2.3628671,0.90238 -1.8037744,4.53292 1.3233851,8.61016 l 2.844771,3.7099 0.517231,32.5123 c 0.626667,39.39187 0.201331,45.99222 -3.463024,53.8085 -3.2286707,6.88694 -3.1683522,6.44624 -1.1577092,8.44728 1.6936422,1.68555 1.8872432,1.64517 11.2437172,-2.39283 6.089238,-2.62794 13.145714,-2.29974 20.808452,0.9692 5.828718,2.48654 10.148694,2.36889 10.65577,-0.29157 0.191708,-1.00583 -1.314776,-5.68283 -3.347859,-10.39372 -3.423099,-7.93172 -3.690751,-9.30137 -3.616578,-18.50522 l 0.08082,-9.93927 5.34607,0.0121 c 9.741945,0.0208 12.64592,0.97302 17.608084,5.77296 7.205373,6.96982 9.337205,6.02807 9.605144,-4.24074 0.08864,-3.39742 1.084176,-8.49353 2.212376,-11.32472 1.771824,-4.44632 2.052645,-6.69447 1.396121,-11.20003 -0.139422,-0.95684 -5.500297,-0.41628 -14.09657,1.42361 -9.478758,2.0288 -18.80496,2.23923 -20.588226,0.46449 -1.536176,-1.52884 -1.541289,-6.06978 -0.01617,-13.58886 0.739298,-3.64482 6.715947,-5.52851 17.501002,-5.51757 9.868493,0.0103 9.998374,0.0274 16.775664,2.14148 5.150775,1.60672 7.751893,0.31593 6.829069,-3.38817 -1.813703,-7.27994 -1.581242,-9.02099 2.178028,-16.27324 2.269503,-4.37826 3.531619,-8.04086 3.166019,-9.18726 -0.515482,-1.61641 -2.813362,-2.96679 -4.487383,-2.90558 z m 153.524714,0.0603 c -2.82353,0.0132 -6.35245,0.12836 -10.79114,0.34385 -8.89083,0.43167 -22.07547,0.83482 -29.30033,0.8948 -15.15659,0.12584 -16.50592,0.71033 -13.72482,5.94185 6.76774,12.73075 6.17655,8.22818 6.12192,46.67223 -0.0535,37.63285 0.20302,35.40599 -5.70571,49.59189 -1.12145,2.69242 -1.12275,3.54805 -0.004,4.89022 1.77461,2.12806 2.34785,2.07149 8.12012,-0.80231 h 0.002 c 8.54964,-4.25654 16.09025,-4.06273 27.40316,0.70177 2.14751,0.90443 4.57471,1.3881 5.39253,1.07576 2.42616,-0.92656 2.86206,-4.28065 1.02032,-7.84807 -4.08516,-7.91288 -5.66125,-14.47267 -5.66125,-23.55428 v -9.0827 l 2.48513,1.12804 c 1.36691,0.61984 3.41135,3.04208 4.54396,5.38286 1.1326,2.34077 3.5825,7.42881 5.44507,11.30863 4.44749,9.26437 11.82411,17.22912 18.79609,20.29482 11.91218,5.23799 27.48392,1.78222 33.63215,-7.46403 3.26496,-4.91009 2.42742,-7.21641 -2.94782,-8.11752 -8.53527,-1.43086 -12.35092,-5.08603 -18.85872,-18.06687 -4.49198,-8.95995 -9.74875,-15.84844 -13.09646,-17.15799 -1.23756,-0.48409 -1.02814,-1.01778 1.03447,-2.63613 5.85921,-4.5972 7.27312,-6.23213 9.9082,-11.4534 7.32297,-14.51004 -0.49939,-36.5904 -14.6037,-41.22301 -1.75596,-0.57675 -4.50529,-0.8423 -9.21115,-0.82041 z m 252.50982,0.0785 c -0.52007,-0.0196 -1.03938,0.0599 -1.5335,0.25739 -6.9009,2.7583 -52.96413,3.8926 -65.17113,1.6046 -5.03211,-0.9432 -6.88587,-0.9464 -8.01709,-0.0121 -2.15718,1.78175 -1.84493,3.31602 1.89113,9.30388 l 3.36201,5.38889 -0.0504,39.2062 c -0.0475,38.15147 -0.11004,39.34118 -2.32754,44.22712 -2.63008,5.79496 -2.75881,6.953 -0.98395,8.73685 1.38625,1.39329 1.88937,1.33285 12.15493,-1.43168 9.00882,-2.42609 37.2913,-2.41609 48.61974,0.0161 4.26715,0.91614 9.04147,1.92561 10.61131,2.244 3.29953,0.66921 5.94007,-1.07908 5.94007,-3.93508 0,-1.08197 -1.22212,-4.36824 -2.71546,-7.30115 -2.37091,-4.65644 -2.63874,-6.15355 -2.10731,-11.81735 0.33473,-3.56739 0.34284,-7.17503 0.0182,-8.01698 -0.7363,-1.90962 -3.75028,-1.96197 -7.40286,-0.1287 -3.93434,1.9747 -13.79326,2.75138 -20.69936,1.63276 -7.26911,-1.17743 -9.45143,-3.59353 -9.48391,-10.5003 l -0.0222,-4.89021 h 5.20463 c 6.19037,0 10.94124,1.82785 14.37136,5.52964 2.6506,2.86055 5.66244,3.51331 6.91391,1.49803 0.41289,-0.66486 0.74958,-8.34971 0.74958,-17.07756 0,-12.56995 -0.30398,-16.06077 -1.46482,-16.79203 -2.37194,-1.4942 -3.57369,-1.13124 -7.27356,2.19175 -4.55601,4.09194 -7.185,5.0893 -13.39749,5.0893 h -5.10361 v -4.18445 c 0,-5.25549 1.31022,-7.72583 5.15008,-9.70202 4.47996,-2.30561 16.93707,-2.02876 24.42705,0.54293 l 6.11181,2.09724 1.76181,-2.15355 c 1.34845,-1.64736 1.53098,-2.76281 0.77585,-4.73941 -1.69954,-4.44882 -1.09694,-10.17324 1.6002,-15.22161 1.42238,-2.66235 2.58614,-5.95755 2.58614,-7.32327 0,-2.30552 -2.24179,-4.2544 -4.49546,-4.33927 z m 155.98359,0.13674 c -0.91696,0.008 -1.86746,0.0283 -2.85689,0.0583 -15.43849,0.46759 -24.3776,4.39696 -32.57141,14.31676 -5.07922,6.14913 -6.94377,12.20263 -6.86141,22.27543 0.0736,9.00386 3.20235,16.3732 8.93639,21.04282 6.59592,5.37151 7.06254,5.72469 7.5342,5.72469 0.26158,0 4.01788,2.08479 8.34843,4.63285 4.33055,2.54806 8.26782,4.63284 8.74847,4.63284 1.59199,0 5.16222,5.38625 5.16222,7.78774 0,3.6324 -2.8797,5.89871 -6.56236,5.1657 -3.746,-0.74562 -13.01923,-6.43281 -15.09872,-9.25964 -3.46823,-4.71467 -5.24558,-5.75284 -9.85366,-5.75284 -5.71364,0 -7.23633,2.17485 -6.38861,9.13295 1.11063,9.116 2.77756,12.49677 9.87588,20.03945 8.81149,9.36306 26.34555,13.45604 41.0027,9.57132 11.77363,-3.1205 19.7048,-9.23518 24.12399,-18.59773 2.07194,-4.38965 2.3491,-6.34493 2.04467,-14.45549 -0.32129,-8.56 -0.66444,-9.89103 -3.91156,-15.21959 -3.876,-6.36055 -10.99056,-11.96427 -18.57789,-14.62845 -8.7787,-3.0825 -19.75869,-9.00389 -22.32783,-12.04254 -3.39845,-4.01955 -3.28278,-6.13371 0.53744,-9.85082 3.66056,-3.56179 7.9731,-4.07649 13.25405,-1.58249 3.49537,1.65074 3.50949,1.6869 2.92559,7.31723 -0.7592,7.32093 0.38355,9.43055 5.10767,9.43056 2.89576,0 4.89834,-1.05498 9.5324,-5.02294 3.22657,-2.76277 7.72938,-5.59804 10.0052,-6.30178 2.27581,-0.70373 4.8361,-1.61948 5.68954,-2.03289 2.29047,-1.10951 2.46885,-4.8128 0.32123,-6.65368 -1.03065,-0.88346 -5.0045,-4.58993 -8.83131,-8.23817 -9.57208,-9.12545 -15.5539,-11.60993 -29.30842,-11.48959 z m -529.66289,0.1669 c -0.52444,-0.0119 -0.96087,0.0193 -1.27287,0.10052 -1.24804,0.32481 -2.26896,0.65846 -2.26896,0.74198 0,0.0835 -0.89092,2.57377 -1.978,5.53365 -1.08708,2.95991 -2.30778,7.33659 -2.71343,9.72616 -0.40565,2.38957 -1.12566,5.05867 -1.6002,5.92979 -0.47452,0.87115 -2.30658,6.67859 -4.07118,12.90721 -1.7646,6.22859 -3.68594,12.71457 -4.26917,14.41328 -0.58324,1.6987 -3.866539,11.42763 -7.295785,21.6199 -5.997603,17.82584 -7.808901,22.0982 -12.227667,28.82656 -3.020572,4.59933 -3.364338,5.51328 -2.711423,7.20664 0.81922,2.12465 4.744578,1.93519 10.116313,-0.49065 6.216488,-2.80734 11.090332,-2.65278 15.371462,0.49065 4.06757,2.98661 5.45045,3.17551 7.27356,0.9893 0.84353,-1.01154 1.35797,-5.01687 1.42037,-11.06735 l 0.099,-9.48283 9.85366,-0.51476 c 5.41986,-0.28312 11.47146,-0.28312 13.44801,0 l 3.59435,0.51476 0.20406,9.26567 c 0.11273,5.09612 0.22911,9.85919 0.25862,10.58474 0.10405,2.55852 3.1393,2.44209 9.06366,-0.34786 7.54461,-3.55295 12.75061,-3.74952 19.8245,-0.75203 6.25795,2.65176 10.70942,3.0094 12.38729,0.99735 0.84607,-1.01459 0.4807,-2.50924 -1.44663,-5.91974 -7.03987,-12.45736 -16.63292,-39.07572 -31.51475,-87.43879 -4.41919,-14.36157 -4.62971,-14.57509 -12.42969,-12.61966 -5.51691,1.38308 -6.6575,1.37626 -11.13259,-0.0805 -2.05686,-0.66954 -4.40916,-1.09856 -5.98251,-1.13406 z m 178.16592,0.10253 c -0.98571,0.0103 -1.68539,0.3417 -2.63464,1.00338 -2.71735,1.89422 -2.81452,5.86217 -0.23033,9.48084 1.07335,1.503 2.35349,4.35414 2.84477,6.33597 0.49129,1.98182 0.66231,21.04431 0.37783,42.36111 -0.44748,33.53107 -0.74183,39.01515 -2.17197,40.66603 -2.54133,2.93358 -3.09123,5.39565 -1.70121,7.61081 1.64715,2.62489 4.31069,2.55447 8.8495,-0.23727 4.49735,-2.76625 11.71063,-2.95985 16.53928,-0.44439 7.60055,3.95947 10.73494,-1.56458 5.2208,-9.20133 l -3.461,-4.79371 -0.33338,-22.02408 c -0.18271,-12.11228 0.0585,-22.02206 0.53542,-22.02206 0.47699,0 2.45302,4.05374 4.39242,9.00829 4.93355,12.60363 6.30866,15.96609 7.32206,17.89997 0.48543,0.92632 1.42767,4.63259 2.09318,8.23616 1.9575,10.59958 3.72258,12.47598 9.70414,10.32335 2.40948,-0.86712 5.74316,-1.06907 9.89811,-0.60123 5.23288,0.58921 6.60552,0.39999 8.32216,-1.14615 1.71357,-1.54333 1.94696,-2.66113 1.40622,-6.71801 -0.69229,-5.19375 2.17521,-15.51743 8.8495,-31.85478 l 3.15592,-7.7214 -0.26063,25.27149 c -0.22675,22.05562 -0.48901,25.62124 -2.06892,28.01821 -3.18545,4.83274 -1.85299,10.02576 2.57403,10.02576 1.04679,0 3.72979,-0.92656 5.96028,-2.05904 4.93867,-2.50748 10.45,-2.61024 18.62639,-0.34787 5.88079,1.6272 6.28639,1.6201 8.26155,-0.15884 2.79143,-2.51416 2.63009,-4.23737 -1.087,-11.64042 l -3.164,-6.29977 0.37781,-36.84756 c 0.33868,-33.01884 0.58297,-37.41496 2.34573,-42.31085 3.10276,-8.61746 -0.10621,-11.39757 -8.72221,-7.55851 -5.57682,2.48489 -16.60859,2.39796 -21.50145,-0.1689 -4.12551,-2.1643 -10.2205,-2.29087 -11.01541,-0.22924 -0.31959,0.82884 0.0791,4.02516 0.88495,7.10408 1.91178,7.30475 1.94703,7.15332 -7.2372,31.02434 -6.36193,16.53551 -8.23779,19.8018 -9.41522,16.39792 -0.759,-2.19423 -4.89434,-11.58323 -7.22305,-16.39792 -0.82162,-1.69871 -3.45327,-7.72139 -5.84917,-13.38375 -3.62794,-8.57413 -4.36231,-11.44677 -4.38838,-17.18613 -0.0416,-9.1581 -0.67253,-9.68833 -9.75264,-8.19595 -9.54871,1.5694 -16.12004,1.48534 -21.97625,-0.28352 -2.09052,-0.63144 -3.36226,-0.94484 -4.34799,-0.93503 z m 253.75847,21.91149 c 2.83407,0.0541 5.36468,1.34365 6.2694,3.71191 1.32154,3.45929 -0.52086,8.73557 -4.7763,13.68335 -3.18962,3.70853 -8.25318,7.36952 -10.19309,7.36952 -0.31273,0 -0.56774,-4.59954 -0.56774,-10.2208 0,-9.81512 0.108,-10.30511 2.72556,-12.35425 1.95011,-1.52662 4.33789,-2.23187 6.54217,-2.18973 z m -317.08897,0.19905 c 3.47754,0.12468 4.72377,1.9304 4.72377,6.2113 0,5.04657 -1.82084,8.56204 -6.89775,13.31739 -4.76964,4.46756 -7.19402,5.47857 -8.0171,3.34392 -0.33156,-0.8599 -0.60208,-5.18063 -0.60208,-9.60146 0,-9.76862 1.50524,-12.22899 8.01708,-13.09823 1.05238,-0.14047 1.97357,-0.2017 2.77608,-0.17292 z m -107.58207,14.24436 c 0.0439,-0.005 0.0854,-0.003 0.12528,0.0103 0.29052,0.0937 0.47457,0.68022 0.5051,1.81775 0.0266,0.99092 1.59636,7.12943 3.48727,13.64113 2.42452,8.3494 3.09627,12.06212 2.27906,12.59554 -1.56139,1.01914 -13.8372,0.99863 -14.47239,-0.0241 -0.48511,-0.78118 1.62373,-9.6444 5.25516,-22.09445 1.08303,-3.71313 2.16314,-5.86154 2.82052,-5.94589 z m 120.32293,94.77412 c -1.73928,0.0409 -3.72179,0.35103 -5.20666,0.91289 -2.70633,1.02404 -5.58518,6.13339 -6.52601,11.58412 -0.32544,1.88547 -0.97946,4.35493 -1.45471,5.48741 -0.47526,1.13249 -2.31643,7.61844 -4.09138,14.41329 -1.77497,6.79482 -3.96367,14.67065 -4.86319,17.50182 -2.82288,8.88487 -6.67749,21.55478 -7.04727,23.16421 -0.19515,0.84934 -1.29428,4.32397 -2.4427,7.72139 -1.14843,3.39741 -2.84074,8.95682 -3.76002,12.35423 -0.91929,3.39742 -2.08719,7.10368 -2.59627,8.23616 -0.50908,1.13248 -3.55054,10.1665 -6.75836,20.07564 -11.00216,33.98644 -14.99087,44.03967 -21.20647,53.44252 -3.21501,4.8636 -6.62335,9.47987 -7.57461,10.25699 -3.99743,3.2657 -0.66765,9.39636 5.10363,9.39638 1.87531,0 6.57332,-1.61665 10.4416,-3.59327 3.86826,-1.97663 8.6234,-3.84937 10.56686,-4.16231 1.94347,-0.31295 3.94055,-0.81875 4.43688,-1.12402 2.01846,-1.24154 11.28284,2.18696 14.77947,5.46932 2.82647,2.65325 4.52555,3.41028 7.64331,3.41028 6.64025,0 7.65853,-2.94498 5.3299,-15.4247 -1.12669,-6.03831 -0.86856,-13.88495 0.66877,-20.331 0.37283,-1.56331 1.75321,-2.63575 4.31969,-3.35599 4.87211,-1.36734 40.06494,-0.70068 43.82725,0.83045 1.68709,0.68657 3.13904,2.29546 3.62063,4.01352 1.30923,4.6709 0.90942,20.02926 -0.6425,24.69841 -1.27955,3.84969 -1.24778,4.61823 0.28689,6.94926 2.2854,3.47128 8.04311,3.57103 13.07626,0.22723 6.90079,-4.58458 12.33998,-6.06104 22.28337,-6.04643 8.84435,0.013 9.86382,0.25123 18.09905,4.22666 9.37231,4.52435 14.53327,5.25899 18.33342,2.60999 3.19634,-2.2281 2.8879,-4.51883 -1.45067,-10.79587 -4.08043,-5.90356 -7.33018,-12.69603 -11.80339,-24.66423 -1.58725,-4.24678 -5.20441,-13.76118 -8.03728,-21.14337 -7.56714,-19.71929 -24.36782,-70.23596 -32.68659,-98.28092 -11.00126,-37.08836 -11.79479,-38.7164 -18.35766,-37.67198 -2.09108,0.33279 -5.97766,1.53252 -8.63534,2.6663 -2.65769,1.13378 -6.77158,2.0615 -9.14247,2.06106 -3.98805,-7.9e-4 -13.0713,-2.71366 -14.77947,-4.41368 -0.51732,-0.51484 -2.01468,-0.74259 -3.75396,-0.70176 z m 267.06099,0.0805 c -2.50132,-0.0884 -4.66101,0.58457 -6.4957,2.02084 -3.57556,2.7991 -3.61587,7.59854 -0.10707,12.74432 1.44021,2.11213 3.96065,6.48888 5.60266,9.72615 l 2.98619,5.88555 0.11114,64.88991 c 0.0738,43.2561 -0.26713,66.74852 -1.02032,70.46379 -1.45038,7.15428 -3.68817,12.9717 -6.22295,16.17873 -2.83287,3.58421 -2.57352,8.01663 0.64251,10.98288 3.18055,2.93357 6.418,2.64232 12.13069,-1.09184 5.16909,-3.37883 8.55167,-4.61574 14.18547,-5.18781 2.56028,-0.26 5.2714,-0.68262 6.02493,-0.93904 2.47545,-0.84238 16.1018,1.86309 21.77421,4.32317 3.05781,1.32615 6.74586,2.41091 8.1949,2.41093 3.68204,0 6.41946,-2.81278 6.41487,-6.59335 -0.004,-3.0641 -1.15671,-5.26299 -6.74016,-12.86499 -1.41445,-1.92578 -3.09667,-5.4004 -3.73984,-7.72138 -1.1691,-4.21895 -2.11225,-39.23473 -1.17387,-43.5897 0.35361,-1.64108 1.6569,-2.61642 4.52173,-3.38415 7.37909,-1.97748 39.2338,-1.55314 48.01158,0.63942 2.98052,0.7445 3.35076,3.24955 3.42869,23.19435 0.0627,16.05397 -1.41188,24.79634 -4.56821,27.09328 -0.97816,0.71183 -1.50016,1.74408 -1.15974,2.29228 0.34043,0.54821 -0.74901,3.04938 -2.42248,5.5598 -3.54408,5.31665 -3.87957,9.40209 -1.00821,12.25973 2.93672,2.92269 6.97533,3.62492 12.37719,2.14954 2.59389,-0.70847 5.18322,-1.39819 5.75217,-1.53223 0.56895,-0.13403 3.11738,-0.83207 5.6653,-1.55031 2.5479,-0.71825 8.42833,-1.30498 13.06615,-1.30498 8.37074,0 10.76844,0.69517 20.06089,5.81516 4.88048,2.68908 9.08526,2.68045 12.31252,-0.0222 4.47542,-3.74783 4.4928,-5.78454 0.12527,-14.08752 -2.15728,-4.10111 -4.44203,-9.91264 -5.07735,-12.91325 -0.78256,-3.69608 -1.14972,-26.77307 -1.13952,-71.55161 0.016,-70.32236 -0.18608,-67.15475 5.07331,-79.3072 2.52972,-5.84524 2.76127,-10.66776 0.62431,-13.0178 -2.07902,-2.28631 -10.21685,-1.19257 -19.14362,2.5718 -11.83398,4.99034 -24.78268,4.34144 -33.25836,-1.66492 -3.41832,-2.42244 -9.89914,-2.55459 -12.45195,-0.25538 -2.35278,2.11905 -2.45504,7.34782 -0.24447,12.48494 4.64613,10.79708 4.97616,13.32951 5.02685,38.48231 0.027,13.39833 -0.19728,24.60869 -0.49904,24.91156 -2.5721,2.58176 -51.81879,2.93505 -54.37597,0.39011 -0.23684,-0.23572 -0.44219,-12.38679 -0.4566,-27.00279 -0.0231,-23.50924 0.20559,-27.29796 1.98204,-32.85213 4.38176,-13.69988 3.28103,-17.75649 -5.0329,-18.55348 -2.55101,-0.24453 -5.11193,-0.0867 -5.68954,0.3519 -2.21223,1.67935 -16.54691,4.3835 -23.23904,4.3835 -5.48131,0 -8.14776,-0.5802 -12.28424,-2.6663 -3.20033,-1.61398 -6.04309,-2.46339 -8.54442,-2.55168 z m -87.35549,0.0402 c -30.05088,0.0459 -53.37329,12.05999 -65.5146,33.94198 -5.94163,10.70846 -7.73988,19.00086 -7.19477,33.17387 0.42354,11.01211 0.63934,11.94322 4.70963,20.26666 6.75924,13.82208 14.41159,20.46701 39.06713,33.92587 22.70664,12.39504 24.14389,13.55295 26.24139,21.1132 0.87973,3.17085 0.77455,4.65182 -0.52127,7.36952 -2.24729,4.71318 -6.58719,5.47942 -17.49495,3.08855 -5.84821,-1.28185 -17.61241,-9.68727 -24.1846,-17.28064 -5.80445,-6.70635 -9.84385,-9.11207 -15.31691,-9.11688 -3.3689,-0.003 -5.15149,0.68162 -7.71804,2.9639 -3.20746,2.85216 -3.32747,3.24172 -3.09532,10.03781 0.82115,24.03743 17.84021,46.59607 41.05523,54.42178 14.26913,4.81007 33.23356,6.00419 47.88631,3.01215 14.33345,-2.92686 29.36539,-11.62325 37.97204,-21.96577 4.69836,-5.64596 10.17647,-17.39525 11.49425,-24.65418 0.67943,-3.74265 0.66611,-17.64958 -0.0202,-21.76067 -1.40347,-8.40675 -8.12029,-20.93069 -14.73907,-27.47932 -10.6823,-10.56909 -11.72848,-11.18971 -33.38162,-19.81826 -9.77629,-3.89576 -20.35898,-8.62972 -23.51784,-10.5204 -10.855,-6.49711 -15.50146,-13.22452 -13.66421,-19.78006 1.9988,-7.13192 6.42015,-10.75971 15.27448,-12.53519 8.00747,-1.60568 16.53747,1.09061 19.23657,6.07857 1.82351,3.36992 1.82274,3.85775 -0.0485,16.38988 -0.8461,5.66662 0.69377,8.14405 6.58258,10.59279 4.84468,2.01458 9.17411,0.0286 17.73942,-8.13361 10.46589,-9.97334 13.30636,-11.76639 20.43668,-12.90919 7.47435,-1.19798 10.05753,-2.40151 12.22161,-5.68852 2.55749,-3.88458 -0.17833,-9.04347 -7.08162,-13.35158 -1.60462,-1.00138 -6.57716,-5.61059 -11.04977,-10.24291 -8.8585,-9.17481 -16.51137,-14.35931 -25.59889,-17.34299 -7.55552,-2.48067 -10.95062,-3.00393 -23.67746,-3.64553 -2.0619,-0.10396 -4.09429,-0.15388 -6.09769,-0.15083 z m -317.53143,0.18099 c -7.2956,-0.0618 -14.242495,0.14354 -18.674887,0.68567 -3.962395,0.48463 -9.530389,1.13157 -12.375159,1.4377 -6.906879,0.74328 -12.881233,1.5959 -16.034167,2.29028 -6.770867,1.49119 -29.018207,1.38924 -35.751584,-0.16487 -9.393622,-2.16813 -13.682127,-1.69255 -16.296823,1.80769 l -2.081048,2.78491 3.012468,4.30711 c 1.656899,2.36933 3.485219,5.05438 4.061073,5.96598 0.575864,0.9116 1.82847,2.81509 2.784157,4.23069 0.955689,1.41559 1.995357,3.96362 2.309357,5.66235 0.314001,1.6987 0.624067,32.73873 0.688969,68.97783 0.131645,73.50214 0.535111,68.89511 -7.315993,83.39108 -3.212802,5.93199 -3.750835,7.73868 -3.044794,10.20874 1.427269,4.99323 5.177569,6.05024 10.772955,3.03627 6.656372,-3.58546 16.534698,-5.38085 29.613506,-5.38085 12.78539,0 30.370717,2.43208 38.725663,5.35672 3.872636,1.3556 17.499627,3.53702 25.279677,4.04569 4.9444,0.32327 18.06022,-1.76818 24.10782,-3.8426 7.10049,-2.43559 15.16955,-7.3912 19.11532,-11.73894 3.78999,-4.17608 9.92772,-16.06206 11.23564,-21.76066 1.55503,-6.77526 2.43307,-16.99881 1.90122,-22.13467 -1.67306,-16.1568 -11.25582,-32.62762 -22.17223,-38.11033 l -3.57013,-1.7916 2.58213,-2.18372 c 1.41964,-1.20081 4.10736,-3.3419 5.9724,-4.75749 4.41526,-3.35125 10.70258,-12.5452 13.02574,-19.04612 2.67021,-7.47213 3.31594,-26.76276 1.1961,-35.75772 -4.33273,-18.38469 -14.61301,-30.60293 -29.70241,-35.30127 -4.07654,-1.26928 -17.20566,-2.11476 -29.36497,-2.21787 z m -11.678128,42.0052 c 3.440838,0.0985 6.104198,0.7576 9.017198,2.00474 12.18125,5.2152 13.96115,24.11687 3.01448,32.01163 -6.6736,4.81302 -18.249577,7.16589 -28.791176,5.85136 -8.32552,-1.03818 -8.877997,-2.10585 -9.679899,-18.7465 -0.369204,-7.66152 -0.407514,-14.61403 -0.08485,-15.45083 0.785689,-2.03769 2.50608,-2.61453 12.84188,-4.31514 6.024544,-0.99125 10.241543,-1.4538 13.682375,-1.35526 z m 159.036458,20.4617 c 1.80065,0 15.55331,46.35151 15.55331,52.42105 0,2.07489 -0.48952,2.14347 -14.9997,2.14349 -14.34939,0 -14.99971,-0.0898 -14.99971,-2.07513 0,-4.40423 13.23382,-52.48942 14.4461,-52.48941 z M 91.883336,449.14873 c 7.748784,-4.4e-4 15.907534,0.98278 19.990174,2.94982 6.58675,3.17335 8.3924,7.17634 7.91606,17.5521 -0.41148,8.96371 -2.64302,12.9197 -9.15459,16.22498 -4.17136,2.11738 -18.351527,2.84986 -25.861551,1.33516 -8.14799,-1.64336 -13.409815,-4.07518 -14.013734,-6.47873 -0.308244,-1.22678 -0.11301,-7.77713 0.432375,-14.55604 0.851619,-10.58529 1.296751,-12.57231 3.161979,-14.07546 2.441206,-1.96733 9.780509,-2.95139 17.529287,-2.95183 z M 607.68,489.31006 c -2.29711,0 -2.54111,1.3721 -0.49703,2.79698 1.13428,0.7907 2.06287,2.10644 2.06287,2.92369 0,0.96466 1.08863,1.48596 3.10338,1.48597 1.70686,0 3.10339,-0.30549 3.10339,-0.67965 0,-1.09631 -6.467,-6.527 -7.77261,-6.52699 z m 25.65142,85.28324 c -5.76895,-0.003 -12.34937,0.005 -19.84874,0.0161 -63.18244,0.0926 -67.8036,0.43124 -80.33247,5.88958 -7.55186,3.29004 -20.38059,17.99681 -21.78229,24.97189 -0.9755,4.85413 6.76349,12.33864 15.03403,14.53995 3.05632,0.81347 8.40795,0.16247 10.17087,-1.23663 0.77543,-0.61539 1.15492,-2.72447 0.94759,-5.27428 -0.47027,-5.78374 1.48888,-9.98653 6.76644,-14.51582 7.36484,-6.32065 10.93146,-7.76438 25.13219,-10.16852 1.13791,-0.19265 2.99993,-0.62691 4.13784,-0.96718 1.13791,-0.34028 6.2585,-0.9148 11.37909,-1.27485 5.12059,-0.36005 12.10321,-0.86679 15.51694,-1.12603 3.41373,-0.25925 9.69807,-0.65804 13.96524,-0.88675 4.26715,-0.22871 10.31876,-0.69377 13.448,-1.03355 5.74404,-0.6237 16.63843,-1.32448 31.21772,-2.00676 4.36917,-0.20446 8.44236,-0.67692 9.05155,-1.05162 0.60918,-0.37471 1.55075,-0.41082 2.09116,-0.0785 0.5404,0.3324 1.46115,-0.28649 2.0467,-1.37536 2.07351,-3.85589 1.44079,-4.40365 -38.94186,-4.4217 z m -540.714665,0.20308 c -28.969259,-0.0202 -52.399754,0.23346 -52.068612,0.56302 0.331141,0.32955 2.733032,1.14029 5.337988,1.80166 5.658576,1.43661 6.563101,3.13826 1.905269,3.58522 -2.062576,0.19792 -3.362002,-0.14354 -3.362002,-0.88273 0,-0.66269 -0.698264,-0.93923 -1.551694,-0.61331 -0.853431,0.32594 -1.551693,0.14431 -1.551693,-0.40415 0,-0.54846 -0.494563,-0.99735 -1.097096,-0.99734 -0.602533,0 -0.826756,0.43144 -0.499047,0.95914 0.327696,0.5277 -0.692663,1.15465 -2.266929,1.39145 -2.323764,0.34957 -2.131049,0.45992 1.0183,0.58515 2.133579,0.0847 3.879234,0.6483 3.879234,1.2527 0,0.66061 -0.928317,0.81885 -2.32754,0.39814 -1.582583,-0.47587 -1.99645,-0.36226 -1.293078,0.35591 1.562824,1.5957 4.815199,1.70456 8.275699,0.27548 2.394984,-0.98907 5.582785,-1.03207 13.965241,-0.19103 5.974019,0.59941 15.749687,1.34946 21.723709,1.66695 5.97402,0.31746 13.887654,0.84601 17.585856,1.1763 3.6982,0.33031 7.42228,0.58265 8.2757,0.56101 0.85344,-0.0217 3.87923,0.36232 6.72401,0.85256 2.84476,0.49024 7.49985,1.15525 10.34462,1.47793 10.46115,1.18659 19.43064,4.50705 24.82709,9.19127 1.70687,1.48158 3.35093,2.69576 3.65497,2.69648 0.89272,0.002 4.19702,6.00197 5.17636,9.40038 0.60599,2.10292 0.49132,3.8016 -0.3455,5.16972 -1.06491,1.741 -0.87059,2.34203 1.32539,4.13215 2.96422,2.4164 7.74614,2.1892 13.76119,-0.65149 5.63948,-2.66331 11.08338,-8.39752 11.07197,-11.66454 -0.0247,-7.05306 -12.15654,-21.6015 -22.01868,-26.40355 -11.21108,-5.45886 -13.5138,-5.64483 -70.470725,-5.68448 z m 179.127655,1.12804 c -0.10774,-0.0285 -0.24651,0.0322 -0.42026,0.20511 -0.93063,0.92617 -4.48535,11.07779 -4.48535,12.80867 0,0.76295 0.46551,1.09997 1.03446,0.75003 0.56895,-0.34997 1.03446,-1.67788 1.03446,-2.95183 0,-1.27395 0.682,-3.21601 1.51734,-4.31514 1.28466,-1.69035 2.07345,-6.29791 1.31935,-6.49684 z M 38.283235,586.08491 c -0.535374,0 -1.260672,0.46328 -1.612305,1.02952 -0.351635,0.56621 0.08479,1.02951 0.971828,1.02951 0.887012,0 1.614325,-0.4633 1.614328,-1.02951 0,-0.56624 -0.438474,-1.02952 -0.973851,-1.02952 z m 211.721305,6.3822 c -12.42556,-0.10559 -27.52724,5.59642 -41.61287,15.78865 -25.69065,18.58955 -36.4824,23.11728 -48.87834,20.51198 -3.19685,-0.67191 -3.362,-0.55661 -3.362,2.34659 0,4.58207 4.03636,9.68463 10.3729,13.11027 4.91716,2.6583 6.83119,3.08192 14.57744,3.22933 11.51542,0.21914 22.99854,-2.7062 33.78367,-8.60816 21.91174,-11.99076 27.23941,-14.59188 31.84003,-15.54132 12.79769,-2.64111 26.33773,1.6708 34.85452,11.09951 13.94162,15.4344 15.37735,34.63275 2.9761,39.79737 -8.06172,3.35737 -15.41954,-0.0653 -16.24632,-7.55651 -0.26236,-2.3772 1.00458,-3.12943 2.15377,-1.27885 0.93243,1.50147 5.97347,0.33919 7.49178,-1.72728 0.71242,-0.96963 1.29713,-2.75974 1.29713,-3.97933 0,-7.15419 -14.96013,-8.13251 -18.42233,-1.20445 -1.33057,2.66253 -2.10592,13.08308 -0.97384,13.08214 0.42672,-3.6e-4 0.77584,0.58505 0.77584,1.30298 0,2.5007 5.04423,8.67351 8.45754,10.34747 4.59627,2.2541 16.43521,2.28685 21.15395,0.0583 5.68036,-2.68263 11.46702,-10.01067 12.88431,-16.31349 1.83758,-8.17194 0.75132,-20.45374 -2.43058,-27.48937 -1.45267,-3.21202 -2.37118,-6.10755 -2.04266,-6.4345 0.32851,-0.32695 1.79925,-0.6026 3.26905,-0.61128 6.67918,-0.0394 7.12526,-5.33779 0.73139,-8.68054 -2.20486,-1.1527 -6.85993,-5.27484 -10.34461,-9.1591 -12.98827,-14.47757 -24.56998,-20.8685 -39.8571,-21.99191 -0.80349,-0.0591 -1.62041,-0.0914 -2.44877,-0.0985 z m 197.651,0.34183 c -0.90141,-0.008 -1.79766,0.0112 -2.68718,0.0564 -14.85241,0.75307 -25.16676,5.96821 -38.47715,19.45229 -5.40506,5.47558 -11.45216,10.73111 -13.43589,11.68063 -6.19218,2.96399 -5.03491,8.41512 1.78607,8.41513 4.11561,0 4.1187,-0.17826 -0.14143,9.78043 -6.52416,15.25123 -1.04307,35.17925 11.22957,40.82285 5.93038,2.72711 18.40939,2.41409 23.01274,-0.57708 6.39166,-4.15318 9.97426,-14.39561 7.57057,-21.64405 -1.71861,-5.1826 -4.81708,-6.94571 -11.53264,-6.56117 -4.73113,0.2709 -5.70745,0.6999 -7.05535,3.09861 -1.44516,2.57179 -1.39892,3.00339 0.61017,5.66235 1.80248,2.3855 2.81634,2.81966 5.92593,2.53962 2.9292,-0.26378 3.75397,0.034 3.75397,1.35527 0,4.43536 -5.39768,8.76299 -10.92853,8.76299 -4.22608,0 -10.32133,-3.92763 -12.20949,-7.86818 -5.97356,-12.4669 5.60452,-34.64852 21.98031,-42.10978 6.09555,-2.77733 16.53574,-3.68722 23.91588,-2.08317 4.87189,1.0589 15.51695,5.79453 15.51695,6.903 0,0.48892 0.38367,0.88877 0.85262,0.88878 0.46897,0 5.00767,2.29809 10.086,5.10738 23.57235,13.03999 45.88819,14.83227 57.64299,4.62679 3.4069,-2.95788 6.15196,-8.90691 5.22282,-11.31666 -0.64081,-1.66193 -1.94372,-1.68632 -8.22115,-0.15482 -3.10793,0.75823 -18.45343,-4.52725 -25.75648,-8.87156 -3.41373,-2.03071 -9.93085,-6.49023 -14.48248,-9.90914 -15.80889,-11.87466 -30.65758,-17.93951 -44.17882,-18.05681 z m -317.7537,8.80522 c -5.99937,0.17208 -12.39668,3.55572 -18.4021,9.94532 -5.65543,6.01721 -7.80464,9.85765 -8.72627,15.5936 -0.96668,6.01644 2.56191,9.64789 5.70774,5.8755 1.86579,-2.2374 5.58899,-2.75846 11.08813,-1.55231 6.92211,1.51823 14.75294,1.93832 15.44218,0.82843 0.3146,-0.50661 1.42684,-0.92093 2.47098,-0.92093 1.04418,0 3.39634,-1.39293 5.22889,-3.09662 4.74081,-4.40741 3.0145,-6.16423 -6.08352,-6.18514 -8.2748,-0.0191 -10.98175,-1.20839 -7.88577,-3.4666 2.86587,-2.09033 6.97912,-2.76105 12.40548,-2.02084 3.81837,0.52087 4.7387,0.31753 5.31779,-1.18434 1.06138,-2.75269 -2.31786,-8.029 -7.13214,-11.1357 -2.5796,-1.66467 -5.35593,-2.54767 -8.23732,-2.67233 -0.39619,-0.0172 -0.79411,-0.0196 -1.19407,-0.008 z m 435.81777,0.0745 c -2.80697,0.0578 -5.57038,0.80002 -8.29387,2.22594 -5.76782,3.01982 -9.49769,9.5516 -6.64118,11.63036 0.97312,0.70815 3.20412,1.03255 5.05311,0.73393 3.77707,-0.61001 12.02967,1.30438 12.02967,2.79097 0,0.54441 0.005,1.33677 0.0121,1.76145 0.007,0.42467 -3.6006,1.00377 -8.01709,1.28689 -7.08015,0.45388 -8.06489,0.76176 -8.33025,2.60596 -0.19061,1.32474 0.75762,2.86544 2.58614,4.20053 3.28867,2.40121 12.05782,4.85115 14.61987,4.08389 8.92532,-2.67286 14.92851,-2.87724 18.26676,-0.61931 4.40641,2.98043 6.14301,2.32228 6.53812,-2.47728 0.49988,-6.07229 -2.58109,-12.74391 -8.60909,-18.64798 -6.65083,-6.51411 -13.03896,-9.70235 -19.21432,-9.57535 z m -205.55291,52.5537 c -1.42733,0.0349 -2.90583,0.26453 -4.41263,0.71383 -2.33703,0.69684 -4.89269,2.45449 -6.17647,4.24878 l -2.19015,3.06041 -2.59222,-3.06644 c -6.43046,-7.60566 -19.897,-5.50574 -23.76434,3.70586 -2.67408,6.36937 -1.31931,12.71932 4.5298,21.22581 6.05455,8.80522 18.71618,24.39193 21.24488,26.26078 h 0.9496 c 0.84356,-0.44708 2.17552,-1.64707 3.35594,-3.08051 13.35756,-16.22072 21.83834,-28.34266 23.33601,-33.35886 3.17557,-10.63599 -4.28913,-19.95419 -14.28042,-19.70966 z"
     id="path4534"
     inkscape:connector-curvature="0" />
  <path
     style="fill:#000000"
     d=""
     id="path4514"
     inkscape:connector-curvature="0" />
</svg>
