<?xml version="1.0" encoding="UTF-8" standalone="no"?>
<!-- Created with Inkscape (http://www.inkscape.org/) -->

<svg
   xmlns:dc="http://purl.org/dc/elements/1.1/"
   xmlns:cc="http://creativecommons.org/ns#"
   xmlns:rdf="http://www.w3.org/1999/02/22-rdf-syntax-ns#"
   xmlns:svg="http://www.w3.org/2000/svg"
   xmlns="http://www.w3.org/2000/svg"
   xmlns:sodipodi="http://sodipodi.sourceforge.net/DTD/sodipodi-0.dtd"
   xmlns:inkscape="http://www.inkscape.org/namespaces/inkscape"
   version="1.1"
   id="svg4504"
   width="687.73444"
   height="336.33981"
   viewBox="0 0 687.73444 336.33981"
   sodipodi:docname="farmers-bash-logo-sm.svg"
   inkscape:version="0.92.2 (5c3e80d, 2017-08-06)">
  <metadata
     id="metadata4510">
    <rdf:RDF>
      <cc:Work
         rdf:about="">
        <dc:format>image/svg+xml</dc:format>
        <dc:type
           rdf:resource="http://purl.org/dc/dcmitype/StillImage" />
        <dc:title></dc:title>
      </cc:Work>
    </rdf:RDF>
  </metadata>
  <defs
     id="defs4508" />
  <sodipodi:namedview
     pagecolor="#ffffff"
     bordercolor="#666666"
     borderopacity="1"
     objecttolerance="10"
     gridtolerance="10"
     guidetolerance="10"
     inkscape:pageopacity="0"
     inkscape:pageshadow="2"
     inkscape:window-width="1920"
     inkscape:window-height="1009"
     id="namedview4506"
     showgrid="false"
     inkscape:zoom="0.83657704"
     inkscape:cx="212.75845"
     inkscape:cy="162.66515"
     inkscape:window-x="-8"
     inkscape:window-y="-8"
     inkscape:window-maximized="1"
     inkscape:current-layer="svg4504"
     fit-margin-top="0"
     fit-margin-left="0"
     fit-margin-right="0"
     fit-margin-bottom="0" />
  <path
     style="fill:#434343;fill-opacity:1;stroke-width:0.90718699"
     d="m 643.42346,18.003806 c -0.49274,-0.05903 -1.21847,0.570207 -1.55445,1.780973 -0.31979,1.1524 -0.10348,1.686997 0.59285,1.468544 0.60202,-0.1889 1.22948,-1.003541 1.39565,-1.811041 0.19133,-0.929627 -0.0507,-1.392578 -0.43405,-1.438476 z m 27.13165,0.208834 c -1.87714,-0.04168 -3.86284,0.165024 -5.93377,0.6332 -9.12131,2.062039 -14.80104,11.297962 -12.32631,20.043451 3.13012,11.06169 17.11703,15.884196 27.42454,9.456193 2.59866,-1.620569 4.43778,-3.801978 6.10846,-7.240837 2.24013,-4.611041 2.31695,-5.206923 1.20511,-9.404409 -2.24136,-8.461963 -8.34382,-13.306934 -16.47803,-13.487598 z m -1.15746,4.634546 c 2.61227,-0.04122 5.24306,0.445557 7.07007,1.47188 4.32244,2.428149 6.56825,9.321165 4.67398,14.349693 -0.72984,1.937417 -1.66267,3.521842 -2.0732,3.521842 -1.55291,0 -3.22891,-6.593389 -2.27612,-8.954974 0.50695,-1.256483 0.66997,-3.029464 0.36347,-3.939527 -0.71039,-2.109203 -5.12675,-4.277007 -8.71276,-4.277007 -5.29453,0 -5.72034,0.53673 -5.84026,7.359457 -0.14781,8.409094 -0.93423,11.827251 -2.34141,10.16959 -5.28284,-6.223183 -4.34522,-13.981169 2.17732,-18.008542 1.75382,-1.082916 4.34664,-1.651143 6.95891,-1.692412 z m -93.79713,3.232801 c -3.84635,-0.101895 -5.95695,1.474593 -7.7935,5.560114 -1.42169,3.162629 -1.83253,10.830418 -0.8628,16.083881 1.22578,6.64048 6.89482,8.81755 9.77141,3.752399 0.52578,-0.925775 0.97182,-2.600677 0.99162,-3.722331 0.0233,-1.318374 1.09641,-2.667838 3.03658,-3.81589 4.2953,-2.541625 6.71804,-7.163189 5.90202,-11.262226 -0.78395,-3.937954 -3.28901,-5.677648 -9.2862,-6.452258 -0.6246,-0.08064 -1.20966,-0.129125 -1.75913,-0.143689 z m 94.12179,3.341413 c 2.8137,0 3.14164,2.17339 0.52756,3.491773 -2.58088,1.301613 -2.86367,1.173917 -2.86367,-1.289779 0,-1.76131 0.46707,-2.201994 2.33611,-2.201994 z m -1.46801,7.045365 c 1.49007,0 3.8041,2.690421 3.80412,4.422358 0,0.910045 0.73615,2.046155 1.63562,2.52443 3.76816,2.003557 -3.29534,4.240718 -7.70174,2.439233 -2.67398,-1.093204 -2.70398,-1.165284 -0.70048,-1.659008 1.73913,-0.428589 2.09438,-1.127947 2.09438,-4.121638 0,-1.982773 0.39082,-3.605375 0.8681,-3.605375 z m -133.56388,2.70654 c -6.15971,0.04249 -13.54298,0.519264 -20.56444,1.418433 -7.96242,1.019679 -10.99587,1.055732 -16.08631,0.192136 -5.02666,-0.852765 -6.55942,-0.84179 -7.71056,0.05849 -2.08389,1.629808 -1.76591,4.249632 0.87515,7.207432 4.08396,4.573714 4.4147,7.815031 4.07759,39.913136 l -0.31406,30.039288 -2.57077,4.66628 c -2.44893,4.44756 -3.29321,8.81666 -1.94793,10.08437 1.06648,1.00504 2.7585,0.66119 7.92935,-1.60722 6.93856,-3.04389 14.60487,-3.00674 22.21948,0.10526 4.62325,1.88946 5.92057,2.11192 7.07006,1.21293 1.5351,-1.20059 1.89978,-5.31599 0.58933,-6.65442 -0.4505,-0.46014 -1.67804,-3.0479 -2.72958,-5.75057 -1.71869,-4.41749 -2.35631,-9.86134 -2.13319,-18.204 0.15921,-5.953721 3.58698,-2.634547 10.2337,9.90728 5.79441,10.93368 9.59433,15.17398 16.60505,18.52144 4.69149,2.24008 6.42909,2.59578 12.1234,2.47265 7.51384,-0.16246 13.86279,-2.63193 18.42948,-7.16567 3.98767,-3.95887 3.17158,-6.25786 -2.85132,-8.02941 -6.69728,-1.96987 -10.75944,-5.99251 -16.30687,-16.14736 -3.1412,-5.750152 -5.96743,-9.618359 -8.55219,-11.703289 l -3.86057,-3.114191 4.35813,-3.511825 c 5.75903,-4.638858 9.24137,-11.50703 9.25445,-18.259142 0.0204,-10.545057 -6.43154,-21.125192 -14.92003,-24.467472 -2.12334,-0.83605 -7.05765,-1.227057 -13.21735,-1.184531 z m -422.27238,0.0518 c -0.349,0.01202 -0.66946,0.08787 -0.93163,0.240583 -1.54864,0.901963 -17.395467,2.122041 -35.652082,2.743299 -8.786045,0.298976 -15.816724,0.0018 -23.156389,-0.979033 -5.796547,-0.775045 -11.158416,-1.185887 -11.915201,-0.912206 -2.134587,0.77189 -1.628755,3.876796 1.196284,7.364474 l 2.569011,3.174337 0.467575,27.810558 c 0.566124,33.695843 0.181999,39.341873 -3.128336,46.027923 -2.916744,5.8911 -2.862699,5.51411 -1.046307,7.2258 1.530016,1.44182 1.705296,1.4075 10.157827,-2.04661 5.500948,-2.24794 11.875816,-1.96759 18.798246,0.82867 5.265597,2.12699 9.168647,2.02682 9.626734,-0.24894 0.173187,-0.86038 -1.189335,-4.86179 -3.026,-8.89149 -3.092388,-6.7848 -3.332967,-7.95528 -3.26596,-15.82826 l 0.07234,-8.502222 4.829247,0.01004 c 8.800761,0.01781 11.425346,0.832731 15.908108,4.938602 6.509253,5.962 8.433653,5.15685 8.675703,-3.627099 0.0801,-2.906161 0.9799,-7.26662 1.9991,-9.688423 1.60065,-3.803378 1.85466,-5.725761 1.26157,-9.57982 -0.12595,-0.818484 -4.96812,-0.355895 -12.733895,1.217944 -8.563002,1.735436 -16.989647,1.915738 -18.600629,0.397625 -1.387764,-1.30777 -1.391891,-5.192937 -0.01411,-11.624765 0.667873,-3.11778 6.067969,-4.7291 15.811063,-4.719743 8.915084,0.009 9.03217,0.02441 15.154691,1.832765 4.65315,1.374389 7.00212,0.269821 6.16845,-2.898667 -1.63848,-6.22727 -1.42874,-7.716734 1.96734,-13.920317 2.05025,-3.745168 3.19042,-6.878371 2.86014,-7.859003 -0.46568,-1.382679 -2.5406,-2.538362 -4.05289,-2.486008 z m 138.69307,0.0518 c -2.55074,0.0113 -5.74038,0.109715 -9.75024,0.294049 -8.03188,0.369247 -19.94138,0.713877 -26.46823,0.765181 -13.69229,0.107645 -14.91106,0.608909 -12.39866,5.083955 6.11391,10.889895 5.57909,7.038087 5.52974,39.92317 -0.0484,32.19118 0.18397,30.28624 -5.1539,42.42088 -1.01311,2.30309 -1.0142,3.03534 -0.004,4.18344 1.60316,1.82034 2.12013,1.7716 7.33474,-0.68666 h 0.002 c 7.72365,-3.64105 14.53679,-3.47578 24.75673,0.59978 1.94004,0.77365 4.13278,1.18774 4.87159,0.92056 2.19177,-0.79258 2.58484,-3.66131 0.92103,-6.71289 -3.69048,-6.76868 -5.11506,-12.38029 -5.11508,-20.14871 v -7.768777 l 2.24612,0.963998 c 1.23485,0.530212 3.08088,2.602149 4.10407,4.604459 1.02317,2.0023 3.2366,6.35459 4.91923,9.67339 4.01781,7.92476 10.68248,14.73789 16.98088,17.3603 10.76133,4.48058 24.8275,1.52548 30.38174,-6.38377 2.94953,-4.20009 2.1934,-6.17431 -2.66253,-6.94512 -7.71067,-1.22396 -11.15826,-4.3502 -17.03734,-15.45402 -4.058,-7.664355 -8.80622,-13.556958 -11.83052,-14.677148 -1.11799,-0.414087 -0.92818,-0.869444 0.93515,-2.253786 5.29315,-3.932449 6.57046,-5.332395 8.95096,-9.79868 6.61549,-12.411896 -0.45097,-31.299167 -13.19264,-35.261901 -1.58632,-0.493354 -4.06984,-0.720423 -8.32106,-0.7017 z m 228.11444,0.06681 c -0.46983,-0.01673 -0.94047,0.05162 -1.38685,0.220532 -6.2342,2.359451 -47.84609,3.330483 -58.87376,1.373322 -4.54595,-0.806813 -6.22106,-0.809227 -7.243,-0.01003 -1.94876,1.524107 -1.66713,2.835556 1.70798,7.957571 l 3.03835,4.609476 -0.0459,33.53773 c -0.0429,32.634804 -0.0999,33.652004 -2.10321,37.831444 -2.37598,4.95701 -2.49266,5.94716 -0.88927,7.47306 1.25233,1.19183 1.70803,1.14016 10.98182,-1.22462 8.13847,-2.07528 33.68799,-2.06546 43.92197,0.015 3.8549,0.78366 8.16798,1.64728 9.58615,1.91963 2.98075,0.57245 5.36564,-0.92344 5.36564,-3.36647 0,-0.92552 -1.1035,-3.73628 -2.45257,-6.24509 -2.14184,-3.98313 -2.3839,-5.26462 -1.90382,-10.10944 0.30239,-3.05155 0.30916,-6.13805 0.0158,-6.85824 -0.66517,-1.6335 -3.38749,-1.67678 -6.68718,-0.1086 -3.55425,1.68916 -12.46056,2.35191 -18.69945,1.39504 -6.56682,-1.00717 -8.53874,-3.07365 -8.56807,-8.981712 l -0.0194,-4.181775 h 4.70221 c 5.59231,0 9.88394,1.563261 12.98267,4.729769 2.39453,2.446918 5.11553,3.005298 6.24609,1.281428 0.373,-0.56873 0.67578,-7.142832 0.67578,-14.60864 0,-10.752354 -0.27287,-13.739202 -1.32156,-14.364727 -2.14278,-1.278135 -3.23008,-0.966285 -6.5725,1.876205 -4.11585,3.500253 -6.48995,4.352186 -12.10224,4.352186 H 444.9708 V 74.27812 c 0,-4.49555 1.18392,-6.607963 4.6528,-8.298395 4.04715,-1.972223 15.29961,-1.737036 22.06598,0.462788 l 5.52266,1.794343 1.59152,-1.841127 c 1.21817,-1.409149 1.38265,-2.364008 0.70048,-4.054793 -1.53535,-3.80553 -0.9915,-8.701435 1.44507,-13.01981 1.28495,-2.277382 2.3361,-5.0969 2.3361,-6.26514 0,-1.972141 -2.02401,-3.639711 -4.05995,-3.712314 z m 140.91272,0.116956 c -0.82836,0.0072 -1.68752,0.0245 -2.58136,0.05008 -13.94695,0.399975 -22.02146,3.76087 -29.42365,12.246275 -4.58851,5.259972 -6.27284,10.438109 -6.19844,19.054392 0.0665,7.701908 2.8922,14.005777 8.07227,18.00018 5.95868,4.594795 6.38108,4.896836 6.80717,4.896836 0.23631,0 3.62902,1.783296 7.54118,3.962906 3.91218,2.179619 7.46866,3.96291 7.90288,3.96291 1.43818,0 4.66339,4.60854 4.66339,6.66278 0,3.10716 -2.59984,5.04603 -5.92673,4.41901 -3.38407,-0.6378 -11.76221,-5.50273 -13.64079,-7.92081 -3.13317,-4.03293 -4.73868,-4.921896 -8.90157,-4.921896 -5.16163,0 -6.53726,1.860246 -5.77144,7.812216 1.00333,7.79784 2.50842,10.69109 8.92095,17.1431 7.96021,8.00917 23.80136,11.50945 37.04246,8.18646 10.63617,-2.66928 17.80024,-7.89973 21.79249,-15.90845 1.87176,-3.75492 2.12238,-5.42711 1.84735,-12.36489 -0.29025,-7.322233 -0.60074,-8.461752 -3.53416,-13.019807 -3.50153,-5.440825 -9.92719,-10.232973 -16.78149,-12.51191 -7.93058,-2.636775 -17.85004,-7.702305 -20.17097,-10.301571 -3.07012,-3.438327 -2.96592,-5.247415 0.48522,-8.427031 3.3069,-3.046759 7.20267,-3.486639 11.97342,-1.35327 3.15768,1.412042 3.17061,1.442264 2.64312,6.25845 -0.68585,6.262337 0.34628,8.067837 4.61399,8.067837 2.616,0 4.42583,-0.902849 8.61218,-4.297049 2.91485,-2.363276 6.98147,-4.787709 9.03741,-5.389693 2.05594,-0.601966 4.36881,-1.38558 5.1398,-1.739206 2.06919,-0.949081 2.23125,-4.117397 0.29112,-5.692085 -0.93107,-0.755717 -4.52166,-3.92632 -7.97875,-7.047047 -8.64731,-7.805917 -14.05138,-9.931692 -26.47705,-9.828748 z M 141.64759,39.60435 c -0.47377,-0.01021 -0.86855,0.01573 -1.15041,0.08516 -1.12746,0.277839 -2.05027,0.563426 -2.05027,0.634873 0,0.07142 -0.80354,2.201216 -1.7856,4.733105 -0.98205,2.531906 -2.08609,6.276061 -2.45256,8.320109 -0.36646,2.04404 -1.01635,4.3271 -1.44507,5.072257 -0.42866,0.745184 -2.08295,5.713719 -3.67707,11.041693 -1.59412,5.327937 -3.33016,10.875051 -3.85704,12.328127 -0.5269,1.453076 -3.49397,9.776233 -6.59192,18.494716 -5.41816,15.24824 -7.05347,18.90249 -11.04533,24.65794 -2.72876,3.93427 -3.03887,4.7164 -2.44904,6.1649 0.74008,1.81742 4.28523,1.65571 9.13799,-0.41936 5.61591,-2.4014 10.01854,-2.26953 13.88607,0.41936 3.6746,2.55474 4.92377,2.71546 6.57075,0.84537 0.76203,-0.86527 1.22813,-4.29063 1.28451,-9.46622 l 0.0882,-8.11127 8.90155,-0.44106 c 4.89624,-0.24219 10.36429,-0.24219 12.14988,0 l 3.24655,0.44106 0.18349,7.92584 c 0.10184,4.35922 0.20802,8.4329 0.23468,9.05354 0.094,2.18856 2.83496,2.08914 8.18696,-0.29739 6.81571,-3.0392 11.52026,-3.20727 17.91073,-0.64322 5.65336,2.26832 9.67425,2.57484 11.19002,0.85374 0.76433,-0.86788 0.43368,-2.14656 -1.30744,-5.06391 C 190.44751,115.57767 181.78223,92.807724 168.33816,51.437905 164.34591,39.153 164.15573,38.970808 157.10932,40.643477 c -4.98391,1.183093 -6.01451,1.175951 -10.05725,-0.07015 -1.85815,-0.572729 -3.9831,-0.93864 -5.40446,-0.969007 z m 160.95314,0.08688 c -0.89047,0.009 -1.52267,0.292747 -2.38021,0.85875 -2.45483,1.620315 -2.54274,5.014189 -0.20821,8.109603 0.96965,1.285666 2.12519,3.724501 2.56901,5.419761 0.44383,1.695251 0.5993,18.001509 0.34231,36.235925 -0.40425,28.682511 -0.67009,33.373591 -1.96206,34.785751 -2.2958,2.50939 -2.79255,4.6159 -1.53681,6.51074 1.48801,2.24534 3.89433,2.18423 7.99463,-0.20383 4.06285,-2.36625 10.57905,-2.53097 14.9412,-0.37924 6.86624,3.38693 9.69772,-1.33822 4.71633,-7.8707 l -3.12658,-4.10158 -0.30172,-18.83888 c -0.16505,-10.360854 0.0526,-18.837191 0.48346,-18.837191 0.43091,0 2.21618,3.467165 3.9682,7.705288 4.45692,10.781157 5.69936,13.657773 6.61485,15.312023 0.43853,0.79237 1.29026,3.96286 1.89147,7.04536 1.76839,9.06689 3.36203,10.67104 8.7657,8.82967 2.17669,-0.74173 5.1886,-0.91309 8.94214,-0.51289 4.72732,0.504 5.96744,0.34185 7.51823,-0.98072 1.54802,-1.32016 1.75889,-2.27697 1.27039,-5.74722 -0.6254,-4.44275 1.96516,-13.27422 7.99463,-27.249205 l 2.85133,-6.604291 -0.23643,21.617256 c -0.20485,18.8664 -0.44127,21.91588 -1.86854,23.96626 -2.8777,4.13392 -1.6738,8.5774 2.32552,8.5774 0.94566,0 3.37004,-0.79387 5.38504,-1.76259 4.46154,-2.14491 9.43916,-2.23263 16.82561,-0.2974 5.31265,1.39191 5.67921,1.38639 7.46355,-0.13531 2.52175,-2.15062 2.37695,-3.62483 -0.98103,-9.95741 l -2.85837,-5.38802 0.34053,-31.519525 c 0.30596,-28.244354 0.52662,-32.00621 2.11908,-36.194159 2.803,-7.37138 -0.0963,-9.749563 -7.87994,-6.465629 -5.03804,2.125584 -15.0027,2.052013 -19.42286,-0.14368 -3.72693,-1.851343 -9.23328,-1.958996 -9.95139,-0.195472 -0.28872,0.708986 0.0713,3.442648 0.79929,6.076358 1.72708,6.248488 1.75795,6.118188 -6.53898,26.537477 -5.74729,14.144493 -7.44088,16.938915 -8.50456,14.027238 -0.68567,-1.876945 -4.42113,-9.908747 -6.52486,-14.027238 -0.74224,-1.453077 -3.12004,-6.604084 -5.28447,-11.447672 -3.27744,-7.334324 -3.94112,-9.791077 -3.96468,-14.700533 -0.0376,-7.833844 -0.60694,-8.288532 -8.80981,-7.011952 -8.62619,1.342467 -14.56294,1.270831 -19.85337,-0.242247 -1.88855,-0.540138 -3.03712,-0.808666 -3.92762,-0.800276 z m 229.24191,18.743646 c 2.56026,0.04629 4.8465,1.150195 5.66381,3.176009 1.19387,2.959075 -0.46971,7.470952 -4.31402,11.703289 -2.88147,3.172276 -7.45608,6.305244 -9.20857,6.305244 -0.28252,0 -0.51346,-3.934375 -0.51346,-8.742804 0,-8.39586 0.0967,-8.816049 2.46138,-10.568879 1.76172,-1.305871 3.91953,-1.908904 5.91086,-1.872859 z M 245.3873,58.605289 c 3.14156,0.106649 4.26815,1.650962 4.26815,5.31284 0,4.316847 -1.64554,7.324813 -6.23196,11.392542 -4.30884,3.821559 -6.49766,4.686231 -7.24122,2.860246 -0.29954,-0.735556 -0.5452,-4.431607 -0.54522,-8.213189 0,-8.35609 1.36027,-10.460195 7.24299,-11.203743 0.95071,-0.120156 1.78228,-0.173313 2.50726,-0.148696 z m -97.18838,12.184447 c 0.0397,-0.0045 0.0787,-0.0027 0.1147,0.0081 0.26245,0.08019 0.42763,0.582384 0.45521,1.555423 0.024,0.847639 1.44305,6.098091 3.15128,11.668203 2.19029,7.142089 2.79735,10.318089 2.05909,10.774377 -1.41054,0.871768 -12.50061,0.854799 -13.07443,-0.02007 -0.43824,-0.668222 1.46573,-8.249232 4.74632,-18.899014 0.9784,-3.176217 1.95397,-5.015148 2.54783,-5.087309 z m 108.69953,81.069304 c -1.57125,0.035 -3.36256,0.30127 -4.70398,0.78189 -2.44486,0.87596 -5.04502,5.24639 -5.89496,9.90895 -0.294,1.61283 -0.88517,3.72429 -1.3145,4.693 -0.42935,0.96874 -2.09302,6.5175 -3.69648,12.32982 -1.60349,5.81229 -3.58082,12.54939 -4.39343,14.97119 -2.55016,7.60012 -6.03201,18.43784 -6.36607,19.81455 -0.17629,0.72653 -1.16984,3.69814 -2.2073,6.6043 -1.03748,2.90615 -2.56607,7.66273 -3.39653,10.56888 -0.83048,2.90616 -1.88503,6.07664 -2.34493,7.04537 -0.4599,0.96872 -3.20702,8.69521 -6.10493,17.17151 -9.93923,29.07203 -13.54308,37.67229 -19.15819,45.7155 -2.9044,4.16033 -5.98311,8.10979 -6.84246,8.77454 -3.61123,2.79349 -0.60326,8.03775 4.61045,8.03776 1.69414,0 5.93809,-1.38329 9.43265,-3.07409 3.49455,-1.69081 7.78988,-3.29259 9.54558,-3.56027 1.7557,-0.2677 3.5604,-0.7012 4.00878,-0.96233 1.82346,-1.06202 10.19263,1.87024 13.35144,4.67798 2.5534,2.26959 4.08768,2.91871 6.90422,2.91871 5.99872,0 6.91879,-2.52006 4.81513,-13.19522 -1.01784,-5.16519 -0.7836,-11.87641 0.60521,-17.39037 0.3368,-1.33726 1.58262,-2.25585 3.90115,-2.87195 4.40141,-1.16963 36.195,-0.598 39.59382,0.71173 1.52411,0.58729 2.83444,1.962 3.2695,3.43162 1.18275,3.9955 0.82325,17.13374 -0.57874,21.12774 -1.15593,3.29303 -1.12879,3.9504 0.25761,5.94437 2.06461,2.96933 7.26598,3.0541 11.81286,0.1938 6.2341,-3.92164 11.14941,-5.18333 20.13215,-5.17084 7.9899,0.0111 8.90961,0.21483 16.34922,3.61541 8.46684,3.87014 13.1297,4.49802 16.56271,2.23207 2.88755,-1.90592 2.60845,-3.8646 -1.31097,-9.23399 -3.68621,-5.04991 -6.6214,-10.86173 -10.66245,-21.09934 -1.43391,-3.6327 -4.70146,-11.77064 -7.26064,-18.08538 -6.83606,-16.86791 -22.01442,-60.08021 -29.52951,-84.06988 -9.93841,-31.72543 -10.65506,-33.11796 -16.58388,-32.22456 -1.88906,0.28466 -5.39964,1.31068 -7.80055,2.28051 -2.40093,0.96984 -6.11747,1.76465 -8.2593,1.76427 -3.60277,-6.7e-4 -11.8083,-2.3216 -13.35145,-3.7758 -0.46733,-0.4404 -1.81999,-0.63637 -3.39123,-0.60145 z m 241.25944,0.0702 c -2.25967,-0.0757 -4.21107,0.49892 -5.86851,1.72751 -3.23012,2.39435 -3.26685,6.49964 -0.097,10.90135 1.30107,1.80672 3.57878,5.55095 5.06216,8.32011 l 2.69781,5.03551 0.10057,55.50583 c 0.0666,37.00131 -0.24237,57.09766 -0.9228,60.2757 -1.31025,6.11978 -3.33158,11.09515 -5.62148,13.83845 -2.55918,3.06593 -2.32482,6.85704 0.5805,9.39437 2.87328,2.50938 5.7981,2.26029 10.95888,-0.93392 4.6697,-2.89025 7.72556,-3.94804 12.81506,-4.43739 2.31294,-0.2224 4.76255,-0.58427 5.44328,-0.80361 2.23629,-0.72058 14.54548,1.59459 19.66987,3.69894 2.76239,1.13439 6.09451,2.06164 7.40355,2.06165 3.32631,0 5.79853,-2.40472 5.79439,-5.63863 -0.004,-2.62103 -1.04503,-4.50217 -6.08904,-11.00493 -1.2778,-1.64731 -2.79609,-4.62061 -3.37713,-6.60597 -1.05615,-3.6089 -1.90814,-33.56155 -1.06042,-37.2868 0.31944,-1.40378 1.49659,-2.23694 4.08465,-2.89366 6.66619,-1.69153 35.44349,-1.32919 43.37324,0.54633 2.69257,0.63684 3.02618,2.78049 3.09657,19.84128 0.0567,13.73259 -1.2756,21.20955 -4.12699,23.17436 -0.88366,0.6089 -1.35385,1.49248 -1.04631,1.96141 0.30753,0.46894 -0.67788,2.60908 -2.18967,4.75649 -3.20168,4.54787 -3.5044,8.04259 -0.91044,10.48702 2.653,2.50007 6.30122,3.09982 11.1812,1.83778 2.34328,-0.60603 4.68226,-1.19518 5.19625,-1.30984 0.51398,-0.11465 2.81684,-0.71216 5.1186,-1.32654 2.30175,-0.6144 7.6143,-1.11602 11.80405,-1.11602 7.56203,0 9.72778,0.59403 18.12247,4.97368 4.40897,2.30024 8.2075,2.29348 11.12297,-0.0184 4.04304,-3.20589 4.0585,-4.94841 0.11293,-12.0508 -1.94887,-3.50809 -4.01358,-8.47998 -4.58753,-11.0467 -0.70696,-3.16163 -1.03787,-22.901 -1.02866,-61.20461 0.0144,-60.15382 -0.16728,-57.44376 4.584,-67.83899 2.28531,-5.00002 2.49335,-9.12502 0.56285,-11.13525 -1.87816,-1.9557 -9.22884,-1.02139 -17.29319,2.19866 -10.69068,4.26874 -22.38966,3.7144 -30.04649,-1.42345 -3.08808,-2.07216 -8.94207,-2.1856 -11.24825,-0.21886 -2.12548,1.81264 -2.21755,6.28486 -0.22055,10.67915 4.19726,9.23584 4.49585,11.40218 4.54164,32.9179 0.0244,11.46095 -0.17908,21.05078 -0.4517,21.30985 -2.3236,2.20844 -46.81161,2.51108 -49.12175,0.33413 -0.21395,-0.20163 -0.39985,-10.59661 -0.41287,-23.09916 -0.0208,-20.10982 0.18607,-23.35021 1.79089,-28.10126 3.95843,-11.71888 2.96378,-15.18828 -4.54693,-15.87003 -2.30455,-0.20917 -4.61798,-0.0745 -5.13979,0.30072 -1.9985,1.43652 -14.94936,3.74907 -20.99496,3.74907 -4.95176,0 -7.35965,-0.49606 -11.09651,-2.28052 -2.89114,-1.3806 -5.4597,-2.10641 -7.71937,-2.18193 z m -78.91594,0.0334 c -27.14761,0.0392 -48.21597,10.31731 -59.18429,29.03519 -5.36761,9.16003 -6.99262,16.25332 -6.50017,28.37693 0.38262,9.41976 0.57699,10.21535 4.25405,17.33523 6.10621,11.82342 13.02037,17.50744 35.29391,29.02015 20.51291,10.60274 21.81025,11.59328 23.70512,18.06033 0.79473,2.71234 0.69952,3.97884 -0.47111,6.30357 -2.03017,4.03166 -5.95005,4.6882 -15.804,2.64305 -5.2832,-1.0965 -15.91171,-8.28702 -21.84894,-14.7824 -5.24368,-5.73662 -8.89238,-7.79474 -13.83666,-7.79885 -3.04343,-0.003 -4.65444,0.58387 -6.97304,2.53613 -2.89759,2.43974 -3.00458,2.77238 -2.79486,8.58576 0.74181,20.56164 16.11614,39.8584 37.08833,46.55252 12.89057,4.11454 30.02319,5.13562 43.26031,2.57623 12.94868,-2.50364 26.52715,-9.94174 34.3023,-18.78875 4.24444,-4.82955 9.19322,-14.88001 10.38368,-21.08931 0.61379,-3.20146 0.60236,-15.09836 -0.0176,-18.615 -1.26788,-7.19114 -7.33506,-17.90344 -13.3144,-23.50514 -9.65027,-9.04082 -10.59644,-9.57178 -30.15764,-16.95265 -8.83179,-3.33244 -18.39184,-7.3828 -21.24551,-9.0001 -9.80629,-5.55762 -14.00371,-11.31161 -12.34396,-16.91922 1.80569,-6.10065 5.80072,-9.20384 13.79962,-10.72259 7.23385,-1.3735 14.93954,0.93252 17.37787,5.19923 1.64735,2.88263 1.64635,3.30057 -0.0441,14.02056 -0.76437,4.84724 0.62624,6.96558 5.94612,9.06024 4.37663,1.72328 8.28853,0.0251 16.02633,-6.95682 9.45477,-8.53121 12.01979,-10.06581 18.46123,-11.04336 6.75225,-1.02475 9.08681,-2.05338 11.04182,-4.86509 2.3104,-3.32287 -0.16148,-7.73579 -6.39783,-11.42094 -1.4496,-0.85659 -5.94089,-4.79869 -9.98138,-8.76118 -8.00267,-7.84814 -14.91684,-12.28362 -23.1264,-14.83586 -6.82557,-2.12196 -9.89291,-2.57039 -21.39019,-3.11921 -1.8627,-0.089 -3.69871,-0.13125 -5.50856,-0.12865 z m -286.85409,0.15538 c -6.59076,-0.0529 -12.86731,0.12268 -16.87148,0.58642 -3.57958,0.41455 -8.60951,0.96777 -11.17943,1.22964 -6.239603,0.6358 -11.635895,1.36576 -14.48422,1.95974 -6.116723,1.27556 -26.215049,1.18737 -32.297904,-0.14201 -8.48609,-1.85463 -12.360324,-1.44704 -14.72241,1.54707 l -1.879119,2.38242 2.720753,3.68391 c 1.496821,2.02673 3.14803,4.32422 3.66825,5.10401 0.520229,0.77978 1.652723,2.40784 2.516079,3.61874 0.863359,1.2109 1.801893,3.39027 2.085557,4.84338 0.283665,1.45305 0.564212,28.00365 0.622845,59.00262 0.118925,62.87381 0.483039,58.93423 -6.609559,71.3341 -2.902409,5.07423 -3.388576,6.61821 -2.750748,8.73111 1.289379,4.27121 4.677793,5.17609 9.732601,2.59794 6.01329,-3.06701 14.937054,-4.60279 26.752298,-4.60279 11.550175,0 27.435607,2.081 34.983367,4.58274 3.4985,1.15958 15.81038,3.02491 22.8388,3.46002 4.46671,0.27653 16.31503,-1.51181 21.77837,-3.28627 6.41449,-2.08341 13.70391,-6.32354 17.26847,-10.04261 3.42384,-3.57222 8.96922,-13.73874 10.15077,-18.61333 1.40481,-5.79556 2.19727,-14.54088 1.71679,-18.93409 -1.51142,-13.82055 -10.16805,-27.91056 -20.02981,-32.60047 l -3.22539,-1.53205 2.33259,-1.86784 c 1.28249,-1.02717 3.71077,-2.85894 5.39562,-4.06983 3.9887,-2.86667 9.66828,-10.73016 11.767,-16.29105 2.41223,-6.39167 2.99487,-22.89298 1.07983,-30.58728 -3.91413,-15.72627 -13.20011,-26.17902 -26.83171,-30.19798 -3.68269,-1.08575 -15.54362,-1.80806 -26.52821,-1.89626 z m -11.75111,35.92183 c 0.41228,-0.005 0.81303,-5.1e-4 1.20158,0.01 3.10841,0.0843 5.51481,0.64734 8.14637,1.71414 11.00441,4.46109 12.61161,20.62967 2.72252,27.38286 -6.02885,4.11706 -16.48631,6.12988 -26.00947,5.00543 -7.521179,-0.88806 -8.020089,-1.801 -8.744518,-16.03543 -0.333535,-6.55367 -0.369126,-12.50115 -0.07764,-13.21695 0.709783,-1.74304 2.263898,-2.23755 11.601138,-3.69225 4.76219,-0.74193 8.27404,-1.13696 11.16002,-1.16783 z m 144.87212,17.51233 c 1.62668,0 14.05193,39.64984 14.05193,44.84173 0,1.77486 -0.4425,1.83274 -13.55083,1.83276 -12.96308,0 -13.55083,-0.076 -13.55083,-1.77429 0,-3.76738 11.95457,-44.9002 13.04973,-44.9002 z M 116.8344,254.85961 c 7.00017,-3.7e-4 14.37074,0.84017 18.05896,2.52277 5.95039,2.71449 7.58155,6.13919 7.15123,15.01462 -0.37173,7.66758 -2.3874,11.05122 -8.26988,13.87856 -3.76836,1.8112 -16.57836,2.43843 -23.36284,1.14276 -7.36079,-1.40573 -12.11421,-3.48573 -12.659783,-5.54174 -0.278464,-1.04938 -0.102756,-6.65307 0.389939,-12.45176 0.769343,-9.05467 1.171589,-10.75498 2.856614,-12.04077 2.20535,-1.68285 8.83561,-2.52406 15.83576,-2.52444 z m 465.96499,34.35472 c -2.07518,0 -2.29477,1.1736 -0.44817,2.39244 1.02469,0.67637 1.86324,1.80198 1.86324,2.50105 0,0.82517 0.98358,1.2714 2.80369,1.27141 1.54195,0 2.80368,-0.26135 2.80367,-0.58141 0,-0.93778 -5.84295,-5.5835 -7.02243,-5.58349 z"
     id="path4534"
     inkscape:connector-curvature="0" />
  <path
     style="fill:#000000"
     d=""
     id="path4514"
     inkscape:connector-curvature="0" />
</svg>
